<?xml version="1.0" standalone="no"?>
<!DOCTYPE svg PUBLIC "-//W3C//DTD SVG 20010904//EN"
 "http://www.w3.org/TR/2001/REC-SVG-20010904/DTD/svg10.dtd">
<svg version="1.0" xmlns="http://www.w3.org/2000/svg"
 width="16.000000pt" height="16.000000pt" viewBox="0 0 16.000000 16.000000"
 preserveAspectRatio="xMidYMid meet">
<metadata>
Created by potrace 1.11, written by Peter Selinger 2001-2013
</metadata>
<g transform="translate(0.000000,16.000000) scale(0.001600,-0.001600)"
fill="#000000" stroke="none">
<path d="M145 9993 c-41 -11 -89 -50 -124 -103 -15 -22 -16 -150 -19 -1457
l-2 -1433 5000 0 5000 0 -2 1433 c-3 1400 -3 1433 -22 1462 -28 43 -53 65 -95
86 -35 17 -216 18 -4876 17 -2662 0 -4849 -3 -4860 -5z"/>
<path d="M0 5000 l0 -1500 3250 0 3250 0 0 1500 0 1500 -3250 0 -3250 0 0
-1500z"/>
<path d="M7000 5000 l0 -1500 1500 0 1500 0 0 1500 0 1500 -1500 0 -1500 0 0
-1500z"/>
<path d="M0 1579 l0 -1422 27 -50 c17 -29 44 -60 68 -76 l40 -26 1433 -3 1432
-2 0 1500 0 1500 -1500 0 -1500 0 0 -1421z"/>
<path d="M3500 1500 l0 -1500 3168 0 3168 0 50 25 c54 27 84 60 102 114 9 25
12 393 12 1447 l0 1414 -3250 0 -3250 0 0 -1500z"/>
</g>
</svg>
