<?xml version="1.0" standalone="no"?>
<!DOCTYPE svg PUBLIC "-//W3C//DTD SVG 20010904//EN"
 "http://www.w3.org/TR/2001/REC-SVG-20010904/DTD/svg10.dtd">
<svg version="1.0" xmlns="http://www.w3.org/2000/svg"
 width="700.000000pt" height="700.000000pt" viewBox="0 0 700.000000 700.000000"
 preserveAspectRatio="xMidYMid meet">
<metadata>
Created by potrace 1.14, written by Peter Selinger 2001-2017
</metadata>
<g transform="translate(0.000000,700.000000) scale(0.100000,-0.100000)"
fill="#000000" stroke="none">
<path d="M265 6990 c-54 -13 -135 -62 -171 -103 -20 -22 -48 -65 -63 -96 l-26
-56 -3 -917 -2 -918 3500 0 3500 0 0 893 c0 980 1 960 -60 1050 -39 58 -81 94
-150 126 l-55 26 -3220 1 c-1771 1 -3233 -1 -3250 -6z"/>
<path d="M0 3500 l0 -1050 2275 0 2275 0 0 1050 0 1050 -2275 0 -2275 0 0
-1050z"/>
<path d="M4900 3500 l0 -1050 1050 0 1050 0 0 1050 0 1050 -1050 0 -1050 0 0
-1050z"/>
<path d="M2 1183 l3 -918 26 -56 c37 -79 87 -130 166 -170 l67 -34 918 -3 918
-3 0 1051 0 1050 -1050 0 -1051 0 3 -917z"/>
<path d="M2450 1050 l0 -1050 2143 2 2142 3 66 32 c77 38 130 93 167 171 l27
57 3 918 2 917 -2275 0 -2275 0 0 -1050z"/>
</g>
</svg>
